<?xml version="1.0" standalone="no"?>
<!DOCTYPE svg PUBLIC "-//W3C//DTD SVG 20010904//EN"
 "http://www.w3.org/TR/2001/REC-SVG-20010904/DTD/svg10.dtd">
<svg version="1.0" xmlns="http://www.w3.org/2000/svg"
 width="700.000000pt" height="700.000000pt" viewBox="0 0 700.000000 700.000000"
 preserveAspectRatio="xMidYMid meet">
<metadata>
Created by potrace 1.14, written by Peter Selinger 2001-2017
</metadata>
<g transform="translate(0.000000,700.000000) scale(0.100000,-0.100000)"
fill="#000000" stroke="none">
<path d="M3298 6996 c-1 -2 -43 -6 -93 -10 -126 -8 -171 -14 -365 -50 -90 -16
-200 -42 -300 -71 -131 -38 -370 -122 -385 -136 -5 -5 -14 -9 -21 -9 -21 0
-263 -120 -389 -193 -103 -60 -265 -165 -315 -204 -8 -6 -51 -40 -95 -74 -511
-398 -918 -967 -1135 -1584 -42 -120 -78 -240 -96 -315 -18 -79 -54 -253 -58
-285 -4 -23 -8 -52 -11 -65 -3 -14 -7 -49 -10 -80 -3 -30 -9 -89 -14 -130 -9
-82 -9 -589 1 -605 3 -6 8 -42 12 -80 4 -39 8 -81 11 -95 7 -46 16 -105 20
-134 3 -15 7 -35 9 -45 3 -9 8 -29 10 -46 27 -155 119 -449 199 -640 73 -172
249 -508 287 -545 3 -3 26 -36 51 -75 98 -149 262 -346 417 -502 330 -330 741
-600 1172 -771 107 -43 323 -117 370 -127 8 -2 62 -15 120 -29 58 -13 132 -29
165 -35 33 -6 69 -13 81 -15 12 -2 45 -8 75 -11 30 -4 65 -9 79 -11 191 -26
626 -25 838 2 300 38 648 131 922 246 112 47 361 170 400 198 16 11 31 20 35
20 13 0 272 177 369 252 159 124 386 340 491 468 21 25 40 47 44 50 5 4 51 62
83 105 4 6 18 24 31 40 169 216 367 581 478 879 30 81 105 318 113 359 3 12
16 78 31 146 52 249 70 422 70 701 0 245 -14 441 -41 572 -2 13 -7 39 -10 58
-7 49 -53 259 -64 295 -87 285 -142 429 -241 630 -213 433 -526 833 -884 1130
-33 28 -62 53 -65 56 -4 5 -159 118 -270 196 -59 42 -274 164 -381 216 -313
152 -674 267 -984 313 -27 4 -57 9 -65 10 -8 2 -42 6 -76 9 -33 4 -74 9 -90
11 -33 5 -520 14 -526 10z"/>
</g>
</svg>
