<?xml version="1.0" encoding="UTF-8" standalone="no"?>
<svg
   xmlns:dc="http://purl.org/dc/elements/1.1/"
   xmlns:cc="http://creativecommons.org/ns#"
   xmlns:rdf="http://www.w3.org/1999/02/22-rdf-syntax-ns#"
   xmlns:svg="http://www.w3.org/2000/svg"
   xmlns="http://www.w3.org/2000/svg"
   xmlns:sodipodi="http://sodipodi.sourceforge.net/DTD/sodipodi-0.dtd"
   xmlns:inkscape="http://www.inkscape.org/namespaces/inkscape"
   id="Layer_1"
   data-name="Layer 1"
   viewBox="0 0 250.00003 249.99999"
   version="1.1"
   sodipodi:docname="noscript-logo-src.svg"
   inkscape:version="0.92.5 (2060ec1f9f, 2020-04-08)"
   width="250"
   height="250">
  <metadata
     id="metadata1069">
    <rdf:RDF>
      <cc:Work
         rdf:about="">
        <dc:format>image/svg+xml</dc:format>
        <dc:type
           rdf:resource="http://purl.org/dc/dcmitype/StillImage" />
        <dc:title>No Script Logo</dc:title>
      </cc:Work>
    </rdf:RDF>
  </metadata>
  <sodipodi:namedview
     pagecolor="#ffffff"
     bordercolor="#666666"
     borderopacity="1"
     objecttolerance="10"
     gridtolerance="10"
     guidetolerance="10"
     inkscape:pageopacity="0"
     inkscape:pageshadow="2"
     inkscape:window-width="2560"
     inkscape:window-height="1563"
     id="namedview1067"
     showgrid="false"
     inkscape:zoom="6.400894"
     inkscape:cx="141.28279"
     inkscape:cy="75.881103"
     inkscape:window-x="0"
     inkscape:window-y="0"
     inkscape:window-maximized="1"
     inkscape:current-layer="g5842"
     fit-margin-top="0"
     fit-margin-left="0"
     fit-margin-right="0"
     fit-margin-bottom="0"
     showguides="false" />
  <defs
     id="defs1040">
    <style
       id="style1038">.cls-1{fill:#0a0a0a;}.cls-2{fill:#d12027;}.cls-3,.cls-4{fill:#fff;}.cls-3{stroke:#000;stroke-miterlimit:10;stroke-width:3px;}</style>
  </defs>
  <title
     id="title1042">No Script Logo</title>
  <ellipse
     class="cls-1"
     cx="123.55082"
     cy="133.27673"
     rx="105.69"
     ry="100.52"
     id="ellipse1044"
     style="fill:#0a0a0a" />
  <path
     style="fill:#d12027;stroke-width:0.9976058"
     d="M 125.02065,1.7056896e-6 A 125,125 0 1 0 250,125.00078 125,125 0 0 0 125.02065,1.7056896e-6 Z M 121.46473,39.559352 a 85.504789,85.504789 0 0 1 49.8647,13.61576 L 53.173553,171.331 A 85.504789,85.504789 0 0 1 121.46473,39.559352 Z m 77.09817,41.954 a 85.504789,85.504789 0 0 1 11.96348,43.475738 85.504789,85.504789 0 0 1 -85.50573,85.52521 v -0.0195 A 85.504789,85.504789 0 0 1 81.560505,198.51575 Z"
     id="rect1046"
     inkscape:connector-curvature="0" />
  <path
     class="cls-3"
     d="m 115.67082,71.856732 c 1.3,-8.72 8.27,-12.13 17.87,-10.7 a 44.15,44.15 0 0 1 10.33,3.11 v 0 l 22.57,13.48 c 0.2,0.12 0.4,0.22 0.6,0.33 7.64,5.21 17.69,2 23,-7.5 l 0.8,-1.43 c 5.84,-10.4 3.73,-24.16 -4.62,-30.16 a 101.34,101.34 0 0 0 -43.39,-18 c -36.84,-5.5 -64.41,13.5 -69.74,49.19 -10.09,67.569998 73.28,59.999998 68.44,92.389998 -1.51,10.08 -9.73,14.42 -21.5,12.67 -11.37,-1.7 -25.82,-10.11 -38,-21.79 -7.65,-7.36 -19.11,-5 -25.14,5.36 l -0.25,0.43 c -5.54,9.54 -4.31,22.23 2.72,29 14.94,14.44 34.33,24.55 54.13,27.51 34,5.08 64.44,-10.71 70.26,-49.67 10.32,-68.589995 -72.8,-62.62 -68.08,-94.219998 z"
     id="path1050"
     inkscape:connector-curvature="0"
     style="fill:#ffffff;stroke:#000000;stroke-width:3px;stroke-miterlimit:10" />
  <rect
     class="cls-2"
     x="-197.87079"
     y="-35.708244"
     width="39.389999"
     height="83.220001"
     transform="rotate(-135)"
     id="rect1052"
     style="fill:#d12027" />
  <path
     class="cls-1"
     d="m 178.11082,43.736732 c -2.67,1.54 2.92,4 5.62,8.64 2.7,4.64 1.48,9.82 4.15,8.28 2.67,-1.54 2.64,-6.58 -0.06,-11.25 -2.7,-4.67 -7.04,-7.21 -9.71,-5.67 z"
     id="path1054"
     inkscape:connector-curvature="0"
     style="fill:#0a0a0a" />
  <path
     class="cls-1"
     d="m 167.07082,40.026732 c 0.41,3.05 -4.92,0.11 -10.27,0.82 -5.35,0.71 -8.68,4.83 -9.09,1.78 -0.41,-3.05 3.59,-6.11 8.94,-6.83 5.35,-0.72 10.01,1.18 10.42,4.23 z"
     id="path1056"
     inkscape:connector-curvature="0"
     style="fill:#0a0a0a" />
  <ellipse
     class="cls-1"
     cx="-9.2101822"
     cy="186.14566"
     rx="5.7199998"
     ry="5.9400001"
     transform="rotate(-74.08)"
     id="ellipse1058"
     style="fill:#0a0a0a" />
  <ellipse
     class="cls-1"
     cx="-5.7522354"
     cy="165.80371"
     rx="5.7199998"
     ry="5.9400001"
     transform="rotate(-74.08)"
     id="ellipse1060"
     style="fill:#0a0a0a" />
  <circle
     class="cls-4"
     cx="155.20641"
     cy="65.063164"
     r="1.55"
     transform="rotate(-5)"
     id="circle1062"
     style="fill:#ffffff" />
  <circle
     class="cls-4"
     cx="173.00517"
     cy="75.187614"
     r="1.55"
     transform="rotate(-5)"
     id="circle1064"
     style="fill:#ffffff" />
  <text
     xml:space="preserve"
     style="font-style:normal;font-variant:normal;font-weight:bold;font-stretch:normal;font-size:40px;line-height:1.25;font-family:Jellee;-inkscape-font-specification:'Jellee, Bold';font-variant-ligatures:normal;font-variant-caps:normal;font-variant-numeric:normal;font-feature-settings:normal;text-align:start;letter-spacing:0px;word-spacing:0px;writing-mode:lr-tb;text-anchor:start;fill:#d12027;fill-opacity:1;stroke:none"
     x="-139.33472"
     y="41.15834"
     id="text922"><tspan
       sodipodi:role="line"
       id="tspan924"
       x="-139.33472"
       y="77.271622"></tspan></text>
  <text
     xml:space="preserve"
     style="font-style:normal;font-variant:normal;font-weight:bold;font-stretch:normal;font-size:40px;line-height:1.25;font-family:Jellee;-inkscape-font-specification:'Jellee, Bold';font-variant-ligatures:normal;font-variant-caps:normal;font-variant-numeric:normal;font-feature-settings:normal;text-align:start;letter-spacing:0px;word-spacing:0px;writing-mode:lr-tb;text-anchor:start;fill:#ffffff;fill-opacity:1;stroke:#0a0a0a;stroke-width:3.77952766;stroke-miterlimit:4;stroke-dasharray:none;stroke-opacity:1"
     x="191.86903"
     y="179.57651"
     id="text932"><tspan
       sodipodi:role="line"
       id="tspan930"
       x="191.86903"
       y="215.68979" /></text>
  <g
     inkscape:groupmode="layer"
     id="layer1"
     inkscape:label="No cript text"
     transform="translate(0.02082,-1.0232683)"
     style="display:inline"
     sodipodi:insensitive="true">
    <text
       xml:space="preserve"
       style="font-style:normal;font-variant:normal;font-weight:bold;font-stretch:normal;font-size:28.05908966px;line-height:1.25;font-family:Jellee;-inkscape-font-specification:'Jellee, Bold';font-variant-ligatures:normal;font-variant-caps:normal;font-variant-numeric:normal;font-feature-settings:normal;text-align:start;letter-spacing:0px;word-spacing:0px;writing-mode:lr-tb;text-anchor:start;fill:#ffffff;fill-opacity:1;stroke:#0a0a0a;stroke-width:3;stroke-miterlimit:4;stroke-dasharray:none;stroke-opacity:1"
       x="120.1047"
       y="232.97987"
       id="text937"
       inkscape:transform-center-x="-0.21917754"
       inkscape:transform-center-y="-1.9726319"><tspan
         sodipodi:role="line"
         id="tspan935"
         x="120.1047"
         y="232.97987"
         style="font-style:normal;font-variant:normal;font-weight:bold;font-stretch:normal;font-size:54.49590683px;font-family:Jellee;-inkscape-font-specification:'Jellee, Bold';font-variant-ligatures:normal;font-variant-caps:normal;font-variant-numeric:normal;font-feature-settings:normal;text-align:start;writing-mode:lr-tb;text-anchor:start;fill:#ffffff;fill-opacity:1;stroke:#0a0a0a;stroke-width:3;stroke-miterlimit:4;stroke-dasharray:none;stroke-opacity:1">cript</tspan></text>
    <text
       xml:space="preserve"
       style="font-style:normal;font-variant:normal;font-weight:bold;font-stretch:normal;font-size:78.56950378px;line-height:1.25;font-family:Jellee;-inkscape-font-specification:'Jellee, Bold';font-variant-ligatures:normal;font-variant-caps:normal;font-variant-numeric:normal;font-feature-settings:normal;text-align:start;letter-spacing:0px;word-spacing:0px;writing-mode:lr-tb;text-anchor:start;fill:#ffffff;fill-opacity:1;stroke:#0a0a0a;stroke-width:3;stroke-miterlimit:4;stroke-dasharray:none;stroke-opacity:1"
       x="2.749136"
       y="143.15614"
       id="text4651"><tspan
         sodipodi:role="line"
         id="tspan4649"
         x="2.749136"
         y="143.15614"
         style="font-style:normal;font-variant:normal;font-weight:bold;font-stretch:normal;font-size:60px;font-family:Jellee;-inkscape-font-specification:'Jellee, Bold';font-variant-ligatures:normal;font-variant-caps:normal;font-variant-numeric:normal;font-feature-settings:normal;text-align:start;writing-mode:lr-tb;text-anchor:start;fill:#ffffff;fill-opacity:1;stroke:#0a0a0a;stroke-width:3;stroke-miterlimit:4;stroke-dasharray:none;stroke-opacity:1">No</tspan></text>
  </g>
  <g
     style="display:inline"
     transform="translate(0.02082,-1.0232683)"
     inkscape:label="No cript path"
     id="g5842"
     inkscape:groupmode="layer"
     sodipodi:insensitive="true">
    <g
       aria-label="cript"
       inkscape:transform-center-x="-0.21917754"
       inkscape:transform-center-y="-1.9726319"
       style="font-style:normal;font-variant:normal;font-weight:bold;font-stretch:normal;font-size:28.05908966px;line-height:1.25;font-family:Jellee;-inkscape-font-specification:'Jellee, Bold';font-variant-ligatures:normal;font-variant-caps:normal;font-variant-numeric:normal;font-feature-settings:normal;text-align:start;letter-spacing:0px;word-spacing:0px;writing-mode:lr-tb;text-anchor:start;fill:#ffffff;fill-opacity:1;stroke:#0a0a0a;stroke-width:3;stroke-miterlimit:4;stroke-dasharray:none;stroke-opacity:1"
       id="text5836">
      <path
         d="m 137.00162,233.64511 q -5.08238,0 -8.51498,-1.88927 -3.43261,-1.88926 -5.1356,-5.34847 -1.67639,-3.45921 -1.67639,-8.19567 0,-4.39054 1.80943,-7.92958 1.83605,-3.53905 5.37509,-5.58796 3.56565,-2.07553 8.5682,-2.07553 3.19312,0 5.77423,0.90472 2.60771,0.90471 4.47036,2.52788 0.66524,0.58541 1.01116,1.54334 0.34592,0.95794 0.34592,1.9957 0,1.25064 -0.61202,2.28841 -0.5854,1.01115 -1.62316,1.59656 -1.01116,0.5854 -2.20858,0.5854 -1.25064,0 -2.31501,-0.61201 -1.03776,-0.61202 -1.62317,-1.62317 -0.5588,-0.95794 -1.41029,-1.43691 -0.8515,-0.50557 -2.18197,-0.50557 -2.36823,0 -3.80513,2.07552 -1.43691,2.04892 -1.43691,6.19998 0,4.20427 1.43691,6.22658 1.46351,1.9957 3.80513,1.9957 1.27725,0 2.23518,-0.5588 0.95794,-0.5854 1.56996,-1.67638 0.66523,-1.1176 1.67638,-1.78283 1.01116,-0.66523 2.31501,-0.66523 1.25064,0 2.31502,0.63862 1.09098,0.61202 1.7296,1.703 0.63863,1.06437 0.63863,2.34162 0,0.93133 -0.34592,1.78283 -0.34593,0.85149 -0.95794,1.49012 -1.86265,1.91587 -4.68324,2.95363 -2.79398,1.03777 -6.5459,1.03777 z"
         style="font-style:normal;font-variant:normal;font-weight:bold;font-stretch:normal;font-size:54.49590683px;font-family:Jellee;-inkscape-font-specification:'Jellee, Bold';font-variant-ligatures:normal;font-variant-caps:normal;font-variant-numeric:normal;font-feature-settings:normal;text-align:start;writing-mode:lr-tb;text-anchor:start;fill:#ffffff;fill-opacity:1;stroke:#0a0a0a;stroke-width:3;stroke-miterlimit:4;stroke-dasharray:none;stroke-opacity:1"
         id="path5849"
         inkscape:connector-curvature="0" />
      <path
         d="m 158.79466,233.40562 q -1.38368,0 -2.55449,-0.66523 -1.1442,-0.69184 -1.83605,-1.86265 -0.69184,-1.17081 -0.69184,-2.52789 v -20.8085 q 0,-1.27724 0.63862,-2.34162 0.63863,-1.09098 1.703,-1.7296 1.09098,-0.63863 2.34162,-0.63863 1.30386,0 2.39484,0.63863 1.09099,0.63862 1.72961,1.7296 0.63862,1.06438 0.63862,2.34162 v 1.30386 h 0.21288 q 1.11759,-3.16651 2.39484,-4.5768 1.27725,-1.43691 3.37938,-1.43691 1.703,0 2.76737,0.71846 1.06438,0.69184 1.51673,1.70299 0.45236,1.01116 0.45236,1.9957 0,1.56995 -1.1442,2.74076 -1.1442,1.1442 -3.11329,1.56995 -2.79398,0.66524 -4.2841,2.71416 -1.49012,2.0223 -1.49012,5.1356 v 8.94073 q 0,1.35708 -0.69185,2.52789 -0.69184,1.1442 -1.86265,1.83604 -1.1442,0.69184 -2.50128,0.69184 z"
         style="font-style:normal;font-variant:normal;font-weight:bold;font-stretch:normal;font-size:54.49590683px;font-family:Jellee;-inkscape-font-specification:'Jellee, Bold';font-variant-ligatures:normal;font-variant-caps:normal;font-variant-numeric:normal;font-feature-settings:normal;text-align:start;writing-mode:lr-tb;text-anchor:start;fill:#ffffff;fill-opacity:1;stroke:#0a0a0a;stroke-width:3;stroke-miterlimit:4;stroke-dasharray:none;stroke-opacity:1"
         id="path5851"
         inkscape:connector-curvature="0" />
      <path
         d="m 182.05121,233.40562 q -1.38368,0 -2.55449,-0.66523 -1.1442,-0.69184 -1.83604,-1.86265 -0.69185,-1.17081 -0.69185,-2.52789 v -20.43596 q 0,-1.38369 0.69185,-2.52789 0.69184,-1.17081 1.83604,-1.86265 1.17081,-0.69185 2.55449,-0.69185 1.35708,0 2.52789,0.69185 1.17081,0.69184 1.83604,1.86265 0.69185,1.1442 0.69185,2.52789 v 20.43596 q 0,1.35708 -0.69185,2.52789 -0.69184,1.1442 -1.86265,1.83604 -1.1442,0.69184 -2.50128,0.69184 z m -1.25063,-33.50114 q -1.1442,0 -2.12875,-0.5588 -0.98455,-0.5854 -1.56995,-1.56995 -0.5588,-0.98454 -0.5588,-2.12875 0,-1.1442 0.5588,-2.12874 0.5854,-0.98455 1.56995,-1.54334 0.98455,-0.58541 2.12875,-0.58541 h 2.50127 q 1.1442,0 2.12875,0.58541 0.98454,0.55879 1.54334,1.54334 0.58541,0.98454 0.58541,2.12874 0,1.14421 -0.58541,2.12875 -0.5588,0.98455 -1.54334,1.56995 -0.98455,0.5588 -2.12875,0.5588 z"
         style="font-style:normal;font-variant:normal;font-weight:bold;font-stretch:normal;font-size:54.49590683px;font-family:Jellee;-inkscape-font-specification:'Jellee, Bold';font-variant-ligatures:normal;font-variant-caps:normal;font-variant-numeric:normal;font-feature-settings:normal;text-align:start;writing-mode:lr-tb;text-anchor:start;fill:#ffffff;fill-opacity:1;stroke:#0a0a0a;stroke-width:3;stroke-miterlimit:4;stroke-dasharray:none;stroke-opacity:1"
         id="path5853"
         inkscape:connector-curvature="0" />
      <path
         d="m 197.4048,245.51287 q -1.38369,0 -2.5545,-0.69184 -1.1442,-0.66524 -1.83604,-1.83605 -0.69184,-1.17081 -0.69184,-2.52788 v -32.96896 q 0,-1.27725 0.61201,-2.34163 0.63863,-1.06437 1.703,-1.67638 1.06437,-0.63863 2.31501,-0.63863 1.30386,0 2.36823,0.63863 1.09098,0.61201 1.703,1.67638 0.63862,1.06438 0.63862,2.34163 v 0.31931 q 1.78283,-2.47467 3.96479,-3.83175 2.20858,-1.35707 5.72101,-1.35707 3.91157,0 6.59911,1.9957 2.71415,1.9957 4.04462,5.37508 1.35707,3.37939 1.35707,7.55705 0,4.92273 -1.75621,8.56821 -1.72961,3.64547 -4.81629,5.58796 -3.06007,1.94248 -6.99825,1.94248 -4.23089,0 -7.31757,-2.79398 v 9.60597 q 0,1.35707 -0.69184,2.50127 -0.69184,1.17081 -1.86265,1.86266 -1.14421,0.69184 -2.50128,0.69184 z m 10.24459,-18.67975 q 1.51673,0 2.76737,-0.93133 1.25064,-0.93132 1.9957,-2.87381 0.74506,-1.96909 0.74506,-4.92272 0,-4.31071 -1.49012,-6.30641 -1.49012,-2.02231 -3.80513,-2.02231 -2.5545,0 -4.12445,2.07553 -1.54334,2.07552 -1.54334,6.25319 0,4.5768 1.49012,6.65233 1.51673,2.07553 3.96479,2.07553 z"
         style="font-style:normal;font-variant:normal;font-weight:bold;font-stretch:normal;font-size:54.49590683px;font-family:Jellee;-inkscape-font-specification:'Jellee, Bold';font-variant-ligatures:normal;font-variant-caps:normal;font-variant-numeric:normal;font-feature-settings:normal;text-align:start;writing-mode:lr-tb;text-anchor:start;fill:#ffffff;fill-opacity:1;stroke:#0a0a0a;stroke-width:3;stroke-miterlimit:4;stroke-dasharray:none;stroke-opacity:1"
         id="path5855"
         inkscape:connector-curvature="0" />
      <path
         d="m 239.47415,233.64511 q -3.51243,0 -5.58796,-1.17081 -2.07553,-1.19742 -2.98025,-3.51244 -0.90471,-2.31501 -0.90471,-5.96048 v -13.01197 h -1.51674 q -0.90471,0 -1.67638,-0.45236 -0.77167,-0.45235 -1.22403,-1.22402 -0.42575,-0.77168 -0.42575,-1.64978 0,-1.4103 0.95793,-2.39484 0.98455,-0.98455 2.36823,-0.98455 h 1.51674 v -3.75191 q 0,-2.28841 1.38368,-3.45922 1.38369,-1.19742 3.56565,-1.19742 2.18197,0 3.51243,1.19742 1.33047,1.17081 1.33047,3.45922 v 3.75191 h 3.21973 q 0.90472,0 1.67639,0.45236 0.77167,0.45236 1.19742,1.22403 0.45235,0.74506 0.45235,1.64978 0,0.90472 -0.45235,1.67639 -0.42575,0.77167 -1.19742,1.25063 -0.77167,0.45236 -1.67639,0.45236 h -2.98025 v 12.13386 q 0,1.59656 0.47897,2.44806 0.50558,0.85149 1.22403,1.17081 0.74506,0.31931 1.88926,0.53218 3.27295,0.61202 3.27295,3.53904 0,2.20858 -1.96909,3.03347 -1.94248,0.79828 -5.45491,0.79828 z"
         style="font-style:normal;font-variant:normal;font-weight:bold;font-stretch:normal;font-size:54.49590683px;font-family:Jellee;-inkscape-font-specification:'Jellee, Bold';font-variant-ligatures:normal;font-variant-caps:normal;font-variant-numeric:normal;font-feature-settings:normal;text-align:start;writing-mode:lr-tb;text-anchor:start;fill:#ffffff;fill-opacity:1;stroke:#0a0a0a;stroke-width:3;stroke-miterlimit:4;stroke-dasharray:none;stroke-opacity:1"
         id="path5857"
         inkscape:connector-curvature="0" />
    </g>
    <g
       aria-label="No"
       style="font-style:normal;font-variant:normal;font-weight:bold;font-stretch:normal;font-size:78.56950378px;line-height:1.25;font-family:Jellee;-inkscape-font-specification:'Jellee, Bold';font-variant-ligatures:normal;font-variant-caps:normal;font-variant-numeric:normal;font-feature-settings:normal;text-align:start;letter-spacing:0px;word-spacing:0px;writing-mode:lr-tb;text-anchor:start;fill:#ffffff;fill-opacity:1;stroke:#0a0a0a;stroke-width:3;stroke-miterlimit:4;stroke-dasharray:none;stroke-opacity:1"
       id="text5840">
      <path
         d="m 11.215933,143.62489 q -1.4648439,0 -2.6953127,-0.70312 -1.2304687,-0.73242 -1.9628906,-1.9336 -0.703125,-1.23046 -0.703125,-2.63671 v -33.16407 q 0,-2.10937 1.0546875,-3.89648 1.0546875,-1.816407 2.8417969,-2.871095 1.7871089,-1.054687 3.9257809,-1.054687 2.050782,0 3.837891,1.054687 1.787109,1.025391 2.8125,2.724605 L 32.33898,121.0663 q 0.644531,1.05469 1.142578,2.08008 0.498047,0.99609 1.435547,3.07617 h 0.292968 v -23.61328 q 0,-1.43555 0.703125,-2.636721 0.703125,-1.201171 1.904297,-1.904296 1.230469,-0.703125 2.666016,-0.703125 1.40625,0 2.607422,0.703125 1.201172,0.703125 1.904297,1.904296 0.703125,1.201171 0.703125,2.636721 v 33.7207 q 0,1.96289 -0.996094,3.66211 -0.966797,1.66992 -2.666016,2.66602 -1.669922,0.96679 -3.632812,0.96679 -1.992188,0 -3.691406,-0.9375 -1.669922,-0.96679 -2.636719,-2.57812 L 19.477652,119.33778 q -0.996094,-1.64062 -1.582032,-2.7539 -0.55664,-1.14258 -1.113281,-2.51953 H 16.48937 v 24.28711 q 0,1.40625 -0.732422,2.63671 -0.703125,1.20118 -1.933593,1.9336 -1.201172,0.70312 -2.607422,0.70312 z"
         style="font-style:normal;font-variant:normal;font-weight:bold;font-stretch:normal;font-size:60px;font-family:Jellee;-inkscape-font-specification:'Jellee, Bold';font-variant-ligatures:normal;font-variant-caps:normal;font-variant-numeric:normal;font-feature-settings:normal;text-align:start;writing-mode:lr-tb;text-anchor:start;fill:#ffffff;fill-opacity:1;stroke:#0a0a0a;stroke-width:3;stroke-miterlimit:4;stroke-dasharray:none;stroke-opacity:1"
         id="path5844"
         inkscape:connector-curvature="0" />
      <path
         d="m 67.553823,143.88857 q -5.390625,0 -9.228515,-2.19727 -3.837891,-2.22656 -5.830078,-6.09375 -1.992188,-3.86719 -1.992188,-8.75977 0,-4.92187 2.021485,-8.78906 2.050781,-3.89648 5.947265,-6.09375 3.925781,-2.22656 9.316406,-2.22656 5.419922,0 9.28711,2.22656 3.896484,2.19727 5.888672,6.06445 1.992187,3.86719 1.992187,8.70118 0,4.95117 -2.080078,8.84765 -2.050781,3.89649 -6.005859,6.12305 -3.925782,2.19727 -9.316407,2.19727 z m 0.175782,-7.99805 q 2.988281,0 4.482422,-2.43164 1.523437,-2.43164 1.523437,-6.67969 0,-4.18945 -1.523437,-6.62109 -1.494141,-2.43164 -4.541016,-2.43164 -2.988281,0 -4.511719,2.43164 -1.49414,2.40234 -1.49414,6.5625 0,4.27734 1.523437,6.73828 1.523438,2.43164 4.541016,2.43164 z"
         style="font-style:normal;font-variant:normal;font-weight:bold;font-stretch:normal;font-size:60px;font-family:Jellee;-inkscape-font-specification:'Jellee, Bold';font-variant-ligatures:normal;font-variant-caps:normal;font-variant-numeric:normal;font-feature-settings:normal;text-align:start;writing-mode:lr-tb;text-anchor:start;fill:#ffffff;fill-opacity:1;stroke:#0a0a0a;stroke-width:3;stroke-miterlimit:4;stroke-dasharray:none;stroke-opacity:1"
         id="path5846"
         inkscape:connector-curvature="0" />
    </g>
  </g>
</svg>
