<svg id="Layer_1" data-name="Layer 1" xmlns="http://www.w3.org/2000/svg" viewBox="0 0 250.59 250.59"><defs><style>.cls-1{fill:#0a0a0a;}.cls-2{fill:#d12027;}.cls-3,.cls-4{fill:#fff;}.cls-3{stroke:#000;stroke-miterlimit:10;stroke-width:3px;}</style></defs><title>No Script Logo</title><ellipse class="cls-1" cx="123.53" cy="134.3" rx="105.69" ry="100.52"/><rect class="cls-2" x="275.95" y="182.38" width="39.39" height="231.39" transform="translate(123.51 547.47) rotate(-135)"/><path class="cls-2" d="M295.72,170.42A125.3,125.3,0,1,0,421,295.72,125.3,125.3,0,0,0,295.72,170.42Zm0,211a85.71,85.71,0,1,1,85.71-85.71A85.71,85.71,0,0,1,295.72,381.44Z" transform="translate(-170.42 -170.42)"/><path class="cls-3" d="M286.07,243.3c1.3-8.72,8.27-12.13,17.87-10.7a44.15,44.15,0,0,1,10.33,3.11h0l22.57,13.48c.2.12.4.22.6.33,7.64,5.21,17.69,2,23-7.5l.8-1.43c5.84-10.4,3.73-24.16-4.62-30.16a101.34,101.34,0,0,0-43.39-18c-36.84-5.5-64.41,13.5-69.74,49.19-10.09,67.57,73.28,60,68.44,92.39-1.51,10.08-9.73,14.42-21.5,12.67-11.37-1.7-25.82-10.11-38-21.79-7.65-7.36-19.11-5-25.14,5.36l-.25.43c-5.54,9.54-4.31,22.23,2.72,29,14.94,14.44,34.33,24.55,54.13,27.51,34,5.08,64.44-10.71,70.26-49.67C364.47,268.93,281.35,274.9,286.07,243.3Z" transform="translate(-170.42 -170.42)"/><rect class="cls-2" x="280.86" y="251.65" width="39.39" height="83.22" transform="translate(135.3 542.73) rotate(-135)"/><path class="cls-1" d="M348.51,215.18c-2.67,1.54,2.92,4,5.62,8.64s1.48,9.82,4.15,8.28,2.64-6.58-.06-11.25S351.18,213.64,348.51,215.18Z" transform="translate(-170.42 -170.42)"/><path class="cls-1" d="M337.47,211.47c.41,3.05-4.92.11-10.27.82s-8.68,4.83-9.09,1.78,3.59-6.11,8.94-6.83S337.06,208.42,337.47,211.47Z" transform="translate(-170.42 -170.42)"/><ellipse class="cls-1" cx="346.86" cy="231.34" rx="5.72" ry="5.94" transform="translate(-141.15 331.04) rotate(-74.08)"/><ellipse class="cls-1" cx="328.25" cy="222.44" rx="5.72" ry="5.94" transform="translate(-146.1 306.68) rotate(-74.08)"/><circle class="cls-4" cx="330.68" cy="222.75" r="1.55" transform="translate(-188.57 -140.77) rotate(-5)"/><circle class="cls-4" cx="349.3" cy="231.29" r="1.55" transform="translate(-189.25 -139.12) rotate(-5)"/></svg>