<?xml version="1.0" encoding="UTF-8" standalone="no"?>
<svg
   xmlns:dc="http://purl.org/dc/elements/1.1/"
   xmlns:cc="http://creativecommons.org/ns#"
   xmlns:rdf="http://www.w3.org/1999/02/22-rdf-syntax-ns#"
   xmlns:svg="http://www.w3.org/2000/svg"
   xmlns="http://www.w3.org/2000/svg"
   id="Layer_1"
   data-name="Layer 1"
   viewBox="0 0 250.00002 250"
   version="1.1"
   width="250"
   height="250">
  <metadata
     id="metadata1069">
    <rdf:RDF>
      <cc:Work
         rdf:about="">
        <dc:format>image/svg+xml</dc:format>
        <dc:type
           rdf:resource="http://purl.org/dc/dcmitype/StillImage" />
        <dc:title>No Script Logo</dc:title>
      </cc:Work>
    </rdf:RDF>
  </metadata>
  <defs
     id="defs1040">
    <style
       id="style1038">.cls-1{fill:#0a0a0a;}.cls-2{fill:#d12027;}.cls-3,.cls-4{fill:#fff;}.cls-3{stroke:#000;stroke-miterlimit:10;stroke-width:3px;}</style>
  </defs>
  <title
     id="title1042">No Script Logo</title>
  <ellipse
     class="cls-1"
     cx="123.55082"
     cy="133.27673"
     rx="105.69"
     ry="100.52"
     id="ellipse1044"
     style="fill:#0a0a0a" />
  <path
     style="fill:#d12027;stroke-width:0.9976058"
     d="M 125.02065,1.7056896e-6 A 125,125 0 1 0 250,125.00078 125,125 0 0 0 125.02065,1.7056896e-6 Z M 121.46473,39.55935 a 85.504789,85.504789 0 0 1 49.8647,13.615762 L 53.173554,171.331 A 85.504789,85.504789 0 0 1 121.46473,39.55935 Z m 77.09817,41.954 a 85.504789,85.504789 0 0 1 11.96348,43.47574 85.504789,85.504789 0 0 1 -85.50573,85.52521 v -0.0195 A 85.504789,85.504789 0 0 1 81.560506,198.51575 Z"
     id="rect1046" />
  <path
     class="cls-3"
     d="m 115.67082,71.856732 c 1.3,-8.72 8.27,-12.13 17.87,-10.7 a 44.15,44.15 0 0 1 10.33,3.11 v 0 l 22.57,13.479998 c 0.2,0.12 0.4,0.22 0.6,0.33 7.64,5.21 17.69,2 23,-7.499998 l 0.8,-1.43 c 5.84,-10.4 3.73,-24.16 -4.62,-30.16 a 101.34,101.34 0 0 0 -43.39,-18 c -36.84,-5.5 -64.409999,13.5 -69.739999,49.19 -10.09,67.569998 73.279999,59.999998 68.439999,92.389998 -1.51,10.08 -9.73,14.42 -21.5,12.67 -11.37,-1.7 -25.819999,-10.11 -37.999999,-21.79 -7.65,-7.36 -19.11,-5 -25.14,5.36 l -0.25,0.43 c -5.54,9.54 -4.31,22.23 2.72,29 14.94,14.44 34.33,24.55 54.129999,27.51 34,5.08 64.44,-10.71 70.26,-49.67 10.32,-68.59 -72.8,-62.62 -68.08,-94.219998 z"
     id="path1050"
     style="fill:#ffffff;stroke:#000000;stroke-width:3px;stroke-miterlimit:10" />
  <rect
     class="cls-2"
     x="-197.87079"
     y="-35.708241"
     width="39.389999"
     height="83.220001"
     transform="rotate(-135)"
     id="rect1052"
     style="fill:#d12027" />
  <path
     class="cls-1"
     d="m 178.11082,43.736732 c -2.67,1.54 2.92,4 5.62,8.64 2.7,4.64 1.48,9.82 4.15,8.28 2.67,-1.54 2.64,-6.58 -0.06,-11.25 -2.7,-4.67 -7.04,-7.21 -9.71,-5.67 z"
     id="path1054"
     style="fill:#0a0a0a" />
  <path
     class="cls-1"
     d="m 167.07082,40.026732 c 0.41,3.05 -4.92,0.11 -10.27,0.82 -5.35,0.71 -8.68,4.83 -9.09,1.78 -0.41,-3.05 3.59,-6.11 8.94,-6.83 5.35,-0.72 10.01,1.18 10.42,4.23 z"
     id="path1056"
     style="fill:#0a0a0a" />
  <ellipse
     class="cls-1"
     cx="-9.2101784"
     cy="186.14566"
     rx="5.7199998"
     ry="5.9400001"
     transform="rotate(-74.08)"
     id="ellipse1058"
     style="fill:#0a0a0a" />
  <ellipse
     class="cls-1"
     cx="-5.7522316"
     cy="165.80371"
     rx="5.7199998"
     ry="5.9400001"
     transform="rotate(-74.08)"
     id="ellipse1060"
     style="fill:#0a0a0a" />
  <circle
     class="cls-4"
     cx="155.20641"
     cy="65.063156"
     r="1.55"
     transform="rotate(-5)"
     id="circle1062"
     style="fill:#ffffff" />
  <circle
     class="cls-4"
     cx="173.00517"
     cy="75.187607"
     r="1.55"
     transform="rotate(-5)"
     id="circle1064"
     style="fill:#ffffff" />
  <text
     xml:space="preserve"
     style="font-style:normal;font-variant:normal;font-weight:bold;font-stretch:normal;font-size:40px;line-height:1.25;font-family:Jellee;-inkscape-font-specification:'Jellee, Bold';font-variant-ligatures:normal;font-variant-caps:normal;font-variant-numeric:normal;font-feature-settings:normal;text-align:start;letter-spacing:0px;word-spacing:0px;writing-mode:lr-tb;text-anchor:start;fill:#d12027;fill-opacity:1;stroke:none"
     x="-139.33472"
     y="41.158333"
     id="text922"><tspan
       id="tspan924"
       x="-139.33472"
       y="77.271614" /></text>
  <text
     xml:space="preserve"
     style="font-style:normal;font-variant:normal;font-weight:bold;font-stretch:normal;font-size:40px;line-height:1.25;font-family:Jellee;-inkscape-font-specification:'Jellee, Bold';font-variant-ligatures:normal;font-variant-caps:normal;font-variant-numeric:normal;font-feature-settings:normal;text-align:start;letter-spacing:0px;word-spacing:0px;writing-mode:lr-tb;text-anchor:start;fill:#ffffff;fill-opacity:1;stroke:#0a0a0a;stroke-width:3.77952766;stroke-miterlimit:4;stroke-dasharray:none;stroke-opacity:1"
     x="191.86903"
     y="179.57651"
     id="text932"><tspan
       id="tspan930"
       x="191.86903"
       y="215.68979" /></text>
  <g
     id="layer1"
     transform="translate(0.02081724,-1.023268)"
     style="display:none">
    <text
       xml:space="preserve"
       style="font-style:normal;font-variant:normal;font-weight:bold;font-stretch:normal;font-size:30.89306259px;line-height:1.25;font-family:Jellee;-inkscape-font-specification:'Jellee, Bold';font-variant-ligatures:normal;font-variant-caps:normal;font-variant-numeric:normal;font-feature-settings:normal;text-align:start;letter-spacing:0px;word-spacing:0px;writing-mode:lr-tb;text-anchor:start;fill:#ffffff;fill-opacity:1;stroke:#0a0a0a;stroke-width:2;stroke-miterlimit:4;stroke-dasharray:none;stroke-opacity:1"
       x="124.01678"
       y="237.75764"
       id="text937"><tspan
         id="tspan935"
         x="124.01678"
         y="237.75764"
         style="font-style:normal;font-variant:normal;font-weight:bold;font-stretch:normal;font-size:53.33333206px;font-family:Jellee;-inkscape-font-specification:'Jellee, Bold';font-variant-ligatures:normal;font-variant-caps:normal;font-variant-numeric:normal;font-feature-settings:normal;text-align:start;writing-mode:lr-tb;text-anchor:start;fill:#ffffff;fill-opacity:1;stroke:#0a0a0a;stroke-width:2;stroke-miterlimit:4;stroke-dasharray:none;stroke-opacity:1">cript</tspan></text>
    <text
       xml:space="preserve"
       style="font-style:normal;font-variant:normal;font-weight:bold;font-stretch:normal;font-size:78.56950378px;line-height:1.25;font-family:Jellee;-inkscape-font-specification:'Jellee, Bold';font-variant-ligatures:normal;font-variant-caps:normal;font-variant-numeric:normal;font-feature-settings:normal;text-align:start;letter-spacing:0px;word-spacing:0px;writing-mode:lr-tb;text-anchor:start;fill:#ffffff;fill-opacity:1;stroke:#0a0a0a;stroke-width:2.35708499;stroke-miterlimit:4;stroke-dasharray:none;stroke-opacity:1"
       x="-0.18823318"
       y="51.450207"
       id="text4651"><tspan
         id="tspan4649"
         x="-0.18823318"
         y="51.450207"
         style="font-style:normal;font-variant:normal;font-weight:bold;font-stretch:normal;font-size:62.85560226px;font-family:Jellee;-inkscape-font-specification:'Jellee, Bold';font-variant-ligatures:normal;font-variant-caps:normal;font-variant-numeric:normal;font-feature-settings:normal;text-align:start;writing-mode:lr-tb;text-anchor:start;fill:#ffffff;fill-opacity:1;stroke:#0a0a0a;stroke-width:2.35708499;stroke-miterlimit:4;stroke-dasharray:none;stroke-opacity:1">No</tspan></text>
  </g>
  <g
     id="layer2"
     transform="translate(0.02081724,-1.023268)"
     style="display:none" />
</svg>
